<?xml version="1.0" standalone="no"?>
<!DOCTYPE svg PUBLIC "-//W3C//DTD SVG 20010904//EN"
 "http://www.w3.org/TR/2001/REC-SVG-20010904/DTD/svg10.dtd">
<svg version="1.0" xmlns="http://www.w3.org/2000/svg"
 width="500.000000pt" height="500.000000pt" viewBox="0 0 500.000000 500.000000"
 preserveAspectRatio="xMidYMid meet">
<metadata>
Created by potrace 1.14, written by Peter Selinger 2001-2017
</metadata>
<g transform="translate(0.000000,500.000000) scale(0.100000,-0.100000)"
fill="#000000" stroke="none">
<path d="M2491 4710 c-75 -27 -126 -63 -157 -110 l-27 -40 -35 32 c-91 79
-230 108 -333 69 -143 -54 -215 -207 -186 -397 l7 -51 -40 -18 c-51 -23 -115
-92 -143 -153 -16 -36 -21 -65 -20 -123 l1 -75 -36 -20 c-75 -40 -116 -138
-94 -224 10 -40 10 -41 -26 -56 -43 -17 -97 -67 -118 -106 -33 -63 -9 -143 64
-217 41 -41 43 -45 32 -72 -33 -78 23 -207 107 -249 48 -24 141 -36 195 -26
19 3 53 22 75 41 l40 34 24 -25 c42 -46 105 -76 169 -81 57 -5 62 -8 74 -37
26 -63 110 -182 181 -256 109 -114 105 -102 105 -365 0 -208 2 -229 21 -266
24 -48 66 -69 139 -69 41 0 56 5 76 25 24 24 25 30 20 103 -3 42 -9 170 -12
284 -5 192 -7 206 -25 211 -25 7 -24 34 2 42 18 6 20 12 14 43 -4 21 -14 45
-23 55 -14 16 -14 19 6 33 12 8 22 21 22 27 0 24 69 154 134 252 36 55 67 104
69 110 2 5 30 -4 62 -19 40 -20 79 -30 126 -34 l69 -5 22 -68 c12 -38 26 -69
30 -69 11 0 10 16 -3 84 -7 31 -10 58 -8 60 2 2 21 7 42 11 l37 7 0 -65 c0
-36 5 -69 11 -72 15 -10 23 2 24 38 5 127 3 121 42 147 20 14 45 34 56 45 27
29 57 101 57 140 0 30 3 33 38 41 20 4 39 8 42 9 3 0 23 4 45 8 58 12 162 65
190 99 24 29 25 33 25 194 0 102 -4 173 -11 186 -26 49 -108 102 -174 112 -38
6 -60 16 -36 16 18 0 8 72 -17 130 -16 38 -76 107 -137 158 -25 21 -127 60
-171 65 -64 8 -82 17 -77 37 7 26 -22 131 -53 192 -41 82 -155 188 -237 221
-86 34 -211 37 -296 7z m634 -480 c-3 -5 -12 -10 -18 -10 -7 0 -6 4 3 10 19
12 23 12 15 0z m-62 -508 l187 -188 0 -232 c0 -127 -3 -233 -7 -235 -5 -2 -27
-2 -50 1 l-43 4 -2 192 -3 191 -107 3 -107 3 -6 -34 c-4 -18 -5 -106 -3 -195
l3 -162 -211 0 c-119 0 -214 -4 -220 -10 -6 -6 -8 80 -6 234 l3 242 182 186
c100 102 187 186 192 187 6 1 95 -84 198 -187z m67 -469 l0 -188 -95 3 -95 3
0 178 c0 98 3 181 7 184 3 4 46 7 95 7 l88 0 0 -187z m267 41 c-3 -3 -12 -4
-19 -1 -8 3 -5 6 6 6 11 1 17 -2 13 -5z m-77 -154 c0 -5 -5 -10 -11 -10 -5 0
-7 5 -4 10 3 6 8 10 11 10 2 0 4 -4 4 -10z m-453 -96 c-3 -3 -12 -4 -19 -1 -8
3 -5 6 6 6 11 1 17 -2 13 -5z m151 -1 c-10 -2 -28 -2 -40 0 -13 2 -5 4 17 4
22 1 32 -1 23 -4z m108 -15 c1 -11 -3 -15 -13 -11 -11 4 -12 8 -2 13 8 6 6 10
-7 13 -19 6 -19 6 0 4 11 -1 20 -10 22 -19z m-476 -3 c0 -2 -21 -39 -47 -81
l-48 -77 -8 44 c-4 24 -6 57 -5 73 3 25 8 29 37 33 19 2 37 5 39 8 7 6 32 7
32 0z m349 1 c-2 -2 -17 -6 -34 -10 -22 -5 -26 -4 -15 4 14 9 59 15 49 6z
m-659 -233 c0 -206 4 -204 -100 -52 -79 115 -79 113 -33 132 21 8 58 33 83 56
25 22 46 40 48 41 1 0 2 -79 2 -177z"/>
<path d="M2810 3707 c-31 -16 -70 -73 -70 -103 0 -24 0 -24 125 -24 l125 0 0
26 c0 82 -103 140 -180 101z m50 -57 l0 -50 -50 0 c-62 0 -66 16 -16 66 50 50
66 46 66 -16z m81 21 c16 -16 29 -39 29 -50 0 -18 -6 -21 -45 -21 l-45 0 0 50
c0 60 16 65 61 21z"/>
<path d="M2587 3454 c-4 -4 -7 -63 -7 -131 l0 -123 130 0 131 0 -3 128 -3 127
-121 3 c-66 1 -123 -1 -127 -4z m113 -64 l0 -50 -50 0 -50 0 0 50 0 50 50 0
50 0 0 -50z m120 0 l0 -50 -50 0 -50 0 0 50 0 50 50 0 50 0 0 -50z m-120 -120
l0 -50 -50 0 -50 0 0 50 0 50 50 0 50 0 0 -50z m120 0 l0 -50 -50 0 -50 0 0
50 0 50 50 0 50 0 0 -50z"/>
<path d="M3005 3290 c-2 -4 3 -17 11 -29 15 -21 17 -21 35 -5 28 26 24 43 -11
42 -17 -1 -33 -4 -35 -8z"/>
<path d="M3291 2987 c-5 -13 -12 -45 -16 -70 -4 -26 -10 -47 -14 -47 -4 0 -12
-13 -18 -29 -9 -24 -15 -28 -38 -23 -20 3 -32 0 -42 -14 -7 -10 -19 -19 -26
-20 -80 -6 -114 -44 -84 -96 9 -16 20 -48 23 -71 10 -65 27 -78 88 -71 61 8
163 50 192 80 11 12 32 29 47 39 30 20 44 52 28 68 -8 8 -19 5 -38 -11 -16
-12 -43 -29 -61 -38 -31 -16 -34 -16 -53 2 -13 12 -18 25 -14 39 3 11 10 45
16 75 5 30 19 77 30 103 21 51 22 98 2 105 -7 2 -17 -7 -22 -21z"/>
<path d="M2950 2849 c0 -15 59 -89 71 -89 5 0 9 11 9 24 0 16 -12 31 -40 50
-22 14 -40 21 -40 15z"/>
<path d="M2909 2355 c-3 -2 -28 -5 -55 -6 -53 -2 -74 -12 -74 -37 0 -12 9 -14
45 -9 25 4 47 2 50 -3 3 -6 17 -10 31 -10 21 0 24 -5 24 -35 0 -24 -6 -37 -21
-45 -11 -7 -39 -30 -62 -53 -23 -23 -45 -42 -49 -42 -16 0 -99 -67 -96 -77 8
-23 26 -18 69 22 24 22 53 43 64 46 11 4 27 13 36 20 13 12 19 11 39 -11 21
-22 25 -23 50 -10 25 13 28 13 26 -2 -1 -12 11 -19 38 -25 49 -11 76 10 76 58
0 18 5 36 10 39 17 10 40 76 32 90 -11 20 -113 71 -158 79 -21 4 -46 9 -55 12
-8 2 -18 2 -20 -1z m-39 -29 c0 -2 -18 -6 -39 -8 -22 -2 -37 0 -35 4 5 8 74
11 74 4z m-110 -260 c0 -2 -7 -7 -16 -10 -8 -3 -12 -2 -9 4 6 10 25 14 25 6z"/>
<path d="M3229 2293 c-24 -27 -54 -70 -66 -98 -27 -63 -48 -158 -39 -180 10
-26 40 -13 46 21 17 79 49 112 85 86 16 -11 81 -152 95 -204 15 -57 33 -76 55
-58 12 10 11 19 -11 62 -14 28 -27 58 -29 67 -2 9 -6 28 -10 43 -6 24 -3 29
20 38 22 8 26 15 23 35 -3 14 -1 25 3 25 5 0 20 18 34 40 30 48 22 78 -28 100
-18 7 -45 26 -61 42 -42 40 -66 36 -117 -19z"/>
<path d="M3492 2214 c2 -15 14 -20 56 -22 55 -3 72 12 23 21 -16 3 -41 9 -56
13 -23 6 -26 4 -23 -12z"/>
<path d="M3510 2065 c30 -31 63 -60 73 -66 21 -12 38 -4 31 15 -6 15 -136 106
-151 106 -4 0 17 -25 47 -55z"/>
<path d="M2859 2038 c-6 -13 -21 -32 -33 -43 -21 -20 -56 -69 -56 -80 0 -3 6
-5 14 -5 8 0 28 22 45 49 17 26 40 56 51 66 24 21 26 35 5 35 -8 0 -20 -10
-26 -22z"/>
<path d="M3410 2041 c0 -9 62 -104 93 -143 8 -10 19 -18 26 -18 24 0 8 37 -39
95 -28 33 -50 63 -50 67 0 5 -7 8 -15 8 -8 0 -15 -4 -15 -9z"/>
<path d="M2932 1958 c-28 -51 -40 -84 -34 -90 11 -11 42 27 42 52 0 9 4 20 9
26 9 9 33 86 28 90 -1 1 -21 -34 -45 -78z"/>
<path d="M3065 2029 c-7 -11 15 -99 26 -99 3 0 6 14 7 30 0 17 -4 30 -10 30
-6 0 -8 10 -4 25 6 25 -7 35 -19 14z"/>
<path d="M550 1300 c0 -60 -1 -113 -2 -117 -2 -5 36 -9 85 -11 l87 -3 0 41 0
40 -45 0 -45 0 0 80 0 80 -40 0 -40 0 0 -110z"/>
<path d="M806 1398 c-4 -11 -37 -123 -62 -210 -5 -15 2 -18 40 -18 35 0 48 5
56 20 6 11 19 20 29 20 10 0 21 -9 24 -20 4 -16 14 -20 51 -20 53 0 53 -14 6
144 l-27 91 -57 3 c-39 2 -58 -1 -60 -10z m68 -110 c5 -22 3 -28 -10 -28 -11
0 -14 5 -10 16 3 9 6 23 6 31 0 22 6 14 14 -19z"/>
<path d="M1155 1401 c-74 -31 -92 -143 -30 -201 33 -31 114 -39 150 -16 24 16
25 18 10 46 -13 25 -20 29 -40 24 -40 -10 -65 4 -65 36 0 32 23 45 63 35 21
-6 28 -2 41 24 15 28 15 31 -6 45 -24 17 -90 20 -123 7z"/>
<path d="M1385 1398 c-7 -21 -65 -220 -65 -224 0 -2 23 -4 50 -4 43 0 50 3 50
20 0 14 7 20 24 20 15 0 26 -7 29 -20 4 -16 14 -20 51 -20 53 0 52 -15 8 140
l-28 95 -57 3 c-40 2 -59 -1 -62 -10z m69 -110 c5 -22 3 -28 -10 -28 -11 0
-14 5 -10 16 3 9 6 23 6 31 0 22 6 14 14 -19z"/>
<path d="M1626 1389 c-22 -17 -26 -28 -24 -57 2 -30 9 -40 41 -58 21 -12 38
-25 37 -30 -1 -5 -5 -8 -9 -8 -3 1 -18 4 -33 8 -22 5 -30 2 -39 -16 -17 -32
19 -58 81 -58 107 0 140 94 49 141 -48 24 -50 33 -5 26 28 -5 35 -2 44 19 10
20 8 26 -11 39 -32 22 -99 19 -131 -6z"/>
<path d="M1818 1306 c-4 -138 -4 -136 43 -136 l39 0 0 120 0 120 -39 0 -40 0
-3 -104z"/>
<path d="M1930 1370 c0 -39 1 -40 35 -40 l35 0 0 -80 0 -80 40 0 40 0 0 80 0
80 35 0 c34 0 35 1 35 40 l0 40 -110 0 -110 0 0 -40z"/>
<path d="M2230 1403 c0 -5 -16 -59 -34 -120 l-33 -113 47 0 c39 0 49 4 53 20
3 12 14 20 27 20 13 0 24 -8 27 -20 4 -16 14 -20 49 -20 24 0 44 5 44 10 0 6
-9 43 -21 83 -11 39 -25 89 -31 110 l-10 37 -59 0 c-33 0 -59 -3 -59 -7z m70
-118 c0 -14 -4 -25 -10 -25 -5 0 -10 11 -10 25 0 14 5 25 10 25 6 0 10 -11 10
-25z"/>
<path d="M2510 1290 l0 -120 75 0 c87 0 127 16 150 60 19 36 19 71 1 115 -20
48 -60 65 -151 65 l-75 0 0 -120z m142 25 c15 -33 -3 -75 -32 -75 -17 0 -20 6
-20 50 0 44 3 50 20 50 12 0 25 -10 32 -25z"/>
<path d="M2790 1290 l0 -120 95 0 95 0 0 35 0 35 -50 0 c-61 0 -67 18 -7 22
39 3 42 5 42 33 0 28 -3 30 -45 36 l-45 6 48 1 c47 2 47 2 47 37 l0 35 -90 0
-90 0 0 -120z"/>
<path d="M3010 1290 l0 -120 90 0 90 0 0 40 0 40 -45 0 -45 0 0 80 0 80 -45 0
-45 0 0 -120z"/>
<path d="M3347 1403 c-6 -11 -67 -214 -67 -225 0 -4 20 -8 44 -8 35 0 45 4 49
20 3 12 14 20 27 20 13 0 24 -8 27 -20 4 -17 14 -20 54 -20 27 0 49 1 49 3 0
2 -7 23 -14 48 -8 24 -24 77 -36 117 l-21 72 -54 0 c-30 0 -56 -3 -58 -7z m59
-141 c-12 -12 -18 8 -10 35 l8 28 4 -28 c2 -16 1 -31 -2 -35z"/>
<path d="M3560 1290 l0 -120 39 0 c40 0 40 0 43 43 l3 42 23 -42 c22 -42 24
-43 72 -43 l50 0 -25 40 c-27 42 -31 65 -15 75 6 3 10 24 10 45 0 59 -33 80
-126 80 l-74 0 0 -120z m115 40 c0 -8 -8 -16 -17 -18 -13 -2 -18 3 -18 18 0
15 5 20 18 18 9 -2 17 -10 17 -18z"/>
<path d="M3810 1290 l0 -120 78 0 c99 0 126 13 130 62 2 28 -2 40 -17 49 -19
13 -19 13 0 37 25 32 24 38 -6 67 -22 22 -32 25 -105 25 l-80 0 0 -120z m120
44 c0 -8 -7 -14 -15 -14 -8 0 -15 9 -15 20 0 13 5 18 15 14 8 -4 15 -12 15
-20z m0 -89 c0 -8 -9 -15 -20 -15 -11 0 -20 7 -20 15 0 8 9 15 20 15 11 0 20
-7 20 -15z"/>
<path d="M4130 1403 c-27 -10 -59 -46 -70 -78 -15 -46 6 -103 49 -132 76 -51
177 -18 202 67 23 77 -36 151 -119 149 -26 0 -54 -3 -62 -6z m85 -113 c0 -32
-2 -35 -30 -35 -24 0 -31 5 -33 23 -6 38 5 54 35 50 25 -3 28 -7 28 -38z"/>
<path d="M4360 1290 l0 -120 91 0 90 0 -3 38 c-3 37 -3 37 -50 40 l-48 3 0 80
0 79 -40 0 -40 0 0 -120z"/>
<path d="M2348 1043 c6 -2 18 -2 25 0 6 3 1 5 -13 5 -14 0 -19 -2 -12 -5z"/>
<path d="M2462 995 l1 -60 7 50 c4 28 8 46 9 40 1 -5 17 -28 36 -49 l35 -39
-2 59 c-1 58 -1 58 -7 14 l-6 -44 -37 44 -38 45 2 -60z"/>
<path d="M2648 1043 c7 -3 16 -2 19 1 4 3 -2 6 -13 5 -11 0 -14 -3 -6 -6z"/>
<path d="M2396 1027 c3 -10 9 -15 12 -12 3 3 0 11 -7 18 -10 9 -11 8 -5 -6z"/>
<path d="M2681 974 c0 -11 3 -14 6 -6 3 7 2 16 -1 19 -3 4 -6 -2 -5 -13z"/>
<path d="M2396 963 c-6 -14 -5 -15 5 -6 7 7 10 15 7 18 -3 3 -9 -2 -12 -12z"/>
<path d="M2348 943 c6 -2 18 -2 25 0 6 3 1 5 -13 5 -14 0 -19 -2 -12 -5z"/>
<path d="M2648 943 c7 -3 16 -2 19 1 4 3 -2 6 -13 5 -11 0 -14 -3 -6 -6z"/>
</g>
</svg>
